<?xml version="1.0" encoding="iso-8859-1"?>
<!-- Generator: Adobe Illustrator 19.0.0, SVG Export Plug-In . SVG Version: 6.00 Build 0)  -->
<svg version="1.1" id="Capa_1" xmlns="http://www.w3.org/2000/svg" xmlns:xlink="http://www.w3.org/1999/xlink" x="0px" y="0px"
	 viewBox="0 0 512 512" style="enable-background:new 0 0 512 512;" xml:space="preserve">
<path style="fill:#E21717;" d="M256,316.379L70.936,257.182v190.011c0,3.587,2.319,6.763,5.735,7.856l176.815,56.559
	c1.635,0.523,3.391,0.523,5.026,0l176.816-56.559c3.417-1.093,5.735-4.269,5.735-7.856V257.182L256,316.379z"/>
<path style="fill:#FEC007;" d="M347.708,91.708c0-51.836-43.006-93.627-95.284-91.64c-49.099,1.866-88.26,42.749-88.132,91.884
	c0.106,40.75,26.792,75.246,63.634,87.081l21.017,34.739c3.209,5.305,10.905,5.305,14.114,0l21.017-34.739
	C320.989,167.174,347.708,132.564,347.708,91.708z"/>
<circle style="fill:#E5E4D3;" cx="270.15" cy="75.12" r="33.24"/>
<path style="fill:#FB4239;" d="M299.122,46.148c-15.975-15.974-41.968-15.976-57.943,0c-14.104,14.105-15.746,36.016-4.943,51.949
	l-33.093,33.094c-3.02,3.02-3.02,7.916,0,10.935c1.51,1.51,3.49,2.265,5.468,2.265s3.958-0.755,5.468-2.265l33.093-33.093
	c6.911,4.686,14.943,7.037,22.978,7.037c10.492,0,20.985-3.994,28.972-11.981C315.096,88.115,315.096,62.122,299.122,46.148z
	 M288.186,93.153c-9.944,9.944-26.127,9.945-36.07,0c-9.945-9.945-9.945-26.126,0-36.07c4.972-4.972,11.503-7.459,18.035-7.459
	s13.064,2.486,18.036,7.459C298.13,67.028,298.13,83.209,288.186,93.153z"/>
<path style="fill:#C1BFA4;" d="M256,473.982L70.936,414.784V230.05c0-5.588,5.439-9.558,10.761-7.856L256,277.95V473.982z"/>
<path style="fill:#A09D80;" d="M92.052,393.387V225.436l-10.378-3.285c-5.317-1.683-10.737,2.286-10.737,7.864v184.77L256,473.982
	v-28.081L92.052,393.387z"/>
<path style="fill:#E5E4D3;" d="M256,428.263L92.052,375.82V213.453c0-5.588,5.439-9.558,10.761-7.856L256,254.598V428.263z"/>
<g>
	<path style="fill:#C1BFA4;" d="M214.478,295.382c-0.76,0-1.533-0.113-2.299-0.351l-69.102-21.492
		c-4.078-1.268-6.355-5.602-5.088-9.68c1.269-4.077,5.598-6.356,9.681-5.087l69.102,21.492c4.078,1.268,6.355,5.602,5.088,9.68
		C220.829,293.257,217.774,295.382,214.478,295.382z"/>
	<path style="fill:#C1BFA4;" d="M214.478,322.78c-0.76,0-1.533-0.113-2.299-0.351l-69.102-21.492
		c-4.078-1.268-6.355-5.602-5.088-9.68c1.269-4.077,5.598-6.355,9.681-5.087l69.102,21.492c4.078,1.268,6.355,5.602,5.088,9.68
		C220.829,320.656,217.774,322.78,214.478,322.78z"/>
	<path style="fill:#C1BFA4;" d="M214.478,350.179c-0.76,0-1.533-0.113-2.299-0.351l-69.102-21.492
		c-4.078-1.268-6.355-5.602-5.088-9.68c1.269-4.077,5.598-6.354,9.681-5.087l69.102,21.492c4.078,1.268,6.355,5.602,5.088,9.68
		C220.829,348.054,217.774,350.179,214.478,350.179z"/>
	<path style="fill:#C1BFA4;" d="M256,473.982l185.064-59.198V230.05c0-5.588-5.439-9.558-10.761-7.856L256,277.95V473.982z"/>
</g>
<path style="fill:#A09D80;" d="M419.948,394.602V225.507l10.354-3.312c5.322-1.702,10.761,2.268,10.761,7.856v184.734L256,473.982
	v-28.081L419.948,394.602z"/>
<g>
	<path style="fill:#E5E4D3;" d="M256,428.263l163.948-52.444V213.453c0-5.588-5.439-9.558-10.761-7.856L256,254.598V428.263z"/>
	<path style="fill:#E5E4D3;" d="M395.356,352.252V210.021l13.831-4.424c5.322-1.702,10.761,2.268,10.761,7.856V375.82L256,428.263
		v-31.434L395.356,352.252z"/>
</g>
<path style="fill:#FEC007;" d="M323.528,312.544l24.6-7.869c3.417-1.093,5.735-4.269,5.735-7.856v-26.212
	c0-5.588-5.439-9.558-10.761-7.856l-24.6,7.869c-3.417,1.093-5.735,4.269-5.735,7.856v26.212
	C312.767,310.275,318.206,314.246,323.528,312.544z"/>
<g>
</g>
<g>
</g>
<g>
</g>
<g>
</g>
<g>
</g>
<g>
</g>
<g>
</g>
<g>
</g>
<g>
</g>
<g>
</g>
<g>
</g>
<g>
</g>
<g>
</g>
<g>
</g>
<g>
</g>
</svg>
